<svg width="65" height="64" viewBox="0 0 65 64" fill="none" xmlns="http://www.w3.org/2000/svg">
<circle cx="32.5" cy="32" r="32" fill="#F7F7F7"/>
<path fill-rule="evenodd" clip-rule="evenodd" d="M35.8924 21.1339C36.3706 20.8578 36.9822 21.0216 37.2584 21.4999L39.2791 24.9999H41.5C42.6046 24.9999 43.5 25.8953 43.5 26.9999V40.9999C43.5 42.1045 42.6046 42.9999 41.5 42.9999H23.5C22.3954 42.9999 21.5 42.1045 21.5 40.9999V26.9999C21.5 25.8953 22.3954 24.9999 23.5 24.9999H29.1962L35.8924 21.1339ZM36.9654 24.9925L36.0263 23.3659L33.2161 24.9884L36.9654 24.9925ZM41.5 37.4999H38.125C36.1695 37.4999 34.5 35.9783 34.5 33.9999C34.5 32.0215 36.1695 30.4999 38.125 30.4999H41.5V26.9999H23.5V40.9999H41.5V37.4999ZM41.5 32.4999H38.125C37.181 32.4999 36.5 33.2169 36.5 33.9999C36.5 34.7829 37.181 35.4999 38.125 35.4999H41.5V32.4999Z" fill="#232323"/>
</svg>
