<svg width="24" height="24" viewBox="0 0 24 24" fill="none" xmlns="http://www.w3.org/2000/svg">
<path d="M6.75 16.5C7.44036 16.5 8 15.9404 8 15.25C8 14.5596 7.44036 14 6.75 14C6.05964 14 5.5 14.5596 5.5 15.25C5.5 15.9404 6.05964 16.5 6.75 16.5Z" fill="#232323"/>
<path d="M17.25 16.5C17.9404 16.5 18.5 15.9404 18.5 15.25C18.5 14.5596 17.9404 14 17.25 14C16.5596 14 16 14.5596 16 15.25C16 15.9404 16.5596 16.5 17.25 16.5Z" fill="#232323"/>
<path d="M7.5 10.5C6.94772 10.5 6.5 10.9477 6.5 11.5C6.5 12.0523 6.94772 12.5 7.5 12.5H16.5C17.0523 12.5 17.5 12.0523 17.5 11.5C17.5 10.9477 17.0523 10.5 16.5 10.5H7.5Z" fill="#232323"/>
<path fill-rule="evenodd" clip-rule="evenodd" d="M8.51501 2.82593C8.65519 2.12502 9.25403 1.5 10.0813 1.5H13.9187C14.746 1.5 15.3448 2.12502 15.485 2.82593L15.8198 4.5H16.9472C18.3423 4.5 19.5518 5.46144 19.8685 6.81751L20.8452 10.3051C22.1677 10.9926 23 12.3601 23 13.8541V17.5C23 18.8807 21.8807 20 20.5 20H20.4601C20.2221 21.4189 18.9881 22.5 17.5016 22.5C16.0141 22.5 14.7796 21.4192 14.5415 20H9.45854C9.22056 21.4188 7.9866 22.5 6.50013 22.5C5.01366 22.5 3.77971 21.4188 3.54172 20H3.5C2.11929 20 1 18.8807 1 17.5V13.8548C1 12.3579 1.83564 10.9879 3.16261 10.3018L4.18837 6.78946C4.51548 5.44699 5.71865 4.5 7.10301 4.5H8.1802L8.51501 2.82593ZM13.5802 3.5L13.7802 4.5H10.2198L10.4198 3.5H13.5802ZM7.10301 6.5H16.9472C17.4155 6.5 17.821 6.825 17.9231 7.28204C17.927 7.29939 17.9313 7.31664 17.9361 7.33376L19.0386 11.2704C19.1147 11.5421 19.302 11.769 19.5543 11.8952L19.8945 12.0652C20.572 12.404 21 13.0965 21 13.8541V17.5C21 17.7761 20.7761 18 20.5 18H19.5016C18.9493 18 18.5016 18.4477 18.5016 19V19.5C18.5016 20.0523 18.0539 20.5 17.5016 20.5C16.9472 20.5 16.5 20.0518 16.5 19.5V19C16.5 18.4477 16.0523 18 15.5 18H8.5C7.94772 18 7.5 18.4477 7.5 19V19.5001C7.5 20.0523 7.05234 20.5 6.50013 20.5C5.94792 20.5 5.50026 20.0523 5.50026 19.5001V19C5.50026 18.4477 5.05255 18 4.50026 18H3.5C3.22386 18 3 17.7761 3 17.5V13.8548C3 13.097 3.42829 12.4043 4.1062 12.0657L4.44716 11.8953C4.69621 11.7709 4.88212 11.5483 4.96017 11.2811L6.11514 7.3263C6.12029 7.30866 6.12495 7.29088 6.12912 7.27298C6.23465 6.82029 6.63819 6.5 7.10301 6.5Z" fill="#232323"/>
</svg>
